<svg width="114" height="114" viewBox="0 0 114 114" fill="none" xmlns="http://www.w3.org/2000/svg">
<path fill-rule="evenodd" clip-rule="evenodd" d="M43 0.875C28.5716 0.875 16.875 12.5716 16.875 27C16.875 41.4284 28.5716 53.125 43 53.125C57.4284 53.125 69.125 41.4284 69.125 27C69.125 12.5716 57.4284 0.875 43 0.875ZM25.125 27C25.125 17.1279 33.1279 9.125 43 9.125C52.8721 9.125 60.875 17.1279 60.875 27C60.875 36.8721 52.8721 44.875 43 44.875C33.1279 44.875 25.125 36.8721 25.125 27Z" fill="#1976D2"/>
<path d="M112.073 68.2515C113.593 66.5542 113.449 63.9463 111.751 62.4267C110.054 60.9071 107.446 61.0512 105.927 62.7485L87.3963 83.446C83.6414 87.6399 81.1128 90.4495 78.9509 92.2666C76.8914 93.9976 75.6817 94.375 74.625 94.375C73.5683 94.375 72.3586 93.9976 70.2991 92.2666C68.1372 90.4495 65.6085 87.6399 61.8537 83.446L57.0733 78.1065C55.5537 76.4092 52.9458 76.2651 51.2485 77.7847C49.5512 79.3043 49.4071 81.9122 50.9267 83.6095L55.9113 89.177C59.4084 93.0833 62.3256 96.3419 64.9909 98.5821C67.8104 100.952 70.8516 102.625 74.625 102.625C78.3984 102.625 81.4396 100.952 84.2591 98.5821C86.9244 96.3419 89.8414 93.0835 93.3386 89.1771L112.073 68.2515Z" fill="#1976D2"/>
<path d="M26.5 61.375C12.0716 61.375 0.375 73.0716 0.375 87.5C0.375 101.928 12.0716 113.625 26.5 113.625H59.5C61.7782 113.625 63.625 111.778 63.625 109.5C63.625 107.222 61.7782 105.375 59.5 105.375H26.5C16.6279 105.375 8.625 97.3721 8.625 87.5C8.625 77.6279 16.6279 69.625 26.5 69.625H59.5C61.7782 69.625 63.625 67.7782 63.625 65.5C63.625 63.2218 61.7782 61.375 59.5 61.375H26.5Z" fill="#1976D2"/>
</svg>
