<svg width="77" height="77" viewBox="0 0 77 77" fill="none" xmlns="http://www.w3.org/2000/svg">
<path d="M62.6592 17.743C63.5989 16.8033 63.5989 15.2797 62.6592 14.34C61.7195 13.4003 60.196 13.4003 59.2563 14.34L38.4994 35.0969L17.7425 14.34C16.8028 13.4003 15.2792 13.4003 14.3395 14.34C13.3998 15.2797 13.3998 16.8033 14.3395 17.743L35.0964 38.4999L14.3396 59.2567C13.3999 60.1964 13.3999 61.7199 14.3396 62.6596C15.2793 63.5993 16.8029 63.5993 17.7426 62.6596L38.4994 41.9028L59.2562 62.6597C60.1959 63.5994 61.7195 63.5994 62.6592 62.6597C63.5989 61.72 63.5989 60.1964 62.6592 59.2567L41.9023 38.4999L62.6592 17.743Z" fill="white"/>
</svg>
