<svg width="73" height="73" viewBox="0 0 73 73" fill="none" xmlns="http://www.w3.org/2000/svg">
<path d="M62.5852 22.752C63.3918 21.7841 63.261 20.3456 62.2932 19.5391C61.3253 18.7325 59.8868 18.8633 59.0802 19.8311L42.6836 39.5071C39.39 43.4595 37.073 46.2312 35.0634 48.0459C33.1006 49.8183 31.7461 50.3816 30.4161 50.3816C29.0861 50.3816 27.7315 49.8183 25.7688 48.0459C23.7591 46.2312 21.4422 43.4595 18.1485 39.5071L13.9186 34.4311C13.112 33.4633 11.6735 33.3325 10.7057 34.1391C9.73777 34.9456 9.607 36.3841 10.4136 37.352L14.7609 42.5688C17.9099 46.3477 20.4317 49.3739 22.711 51.4321C25.0654 53.5582 27.4722 54.9441 30.4161 54.9441C33.36 54.9441 35.7667 53.5582 38.1212 51.4321C40.4004 49.3739 42.9222 46.3477 46.0711 42.5689L62.5852 22.752Z" fill="white"/>
</svg>
