<svg width="72" height="72" viewBox="0 0 72 72" fill="none" xmlns="http://www.w3.org/2000/svg">
<path d="M62.8749 29.2155C64.2931 27.7847 64.2828 25.4751 62.8519 24.0569C61.421 22.6388 59.1114 22.6491 57.6933 24.0799L49.195 32.6544C45.746 36.1343 43.3724 38.5213 41.3611 40.1366C39.4074 41.7056 38.1525 42.2438 37.0286 42.3871C36.3229 42.477 35.6089 42.477 34.9032 42.3871C33.7793 42.2438 32.5244 41.7056 30.5707 40.1366C28.5595 38.5214 26.1858 36.1343 22.7368 32.6544L14.2385 24.0799C12.8204 22.6491 10.5108 22.6388 9.07993 24.0569C7.64906 25.4751 7.63876 27.7847 9.05691 29.2155L17.7083 37.9444C20.9666 41.2321 23.6297 43.9192 26.0026 45.8248C28.47 47.8064 30.9745 49.2408 33.9808 49.624C35.2989 49.792 36.6329 49.792 37.9511 49.624C40.9573 49.2408 43.4618 47.8064 45.9293 45.8248C48.3021 43.9192 50.9652 41.2322 54.2235 37.9445L62.8749 29.2155Z" fill="white"/>
</svg>
