<svg width="173" height="168" viewBox="0 0 173 168" fill="none" xmlns="http://www.w3.org/2000/svg">
<path d="M107.167 49.2962C106.153 46.3048 102.907 44.7013 99.9155 45.7146C96.9241 46.7279 95.3205 49.9743 96.3338 52.9657C99.621 62.6698 108.944 69.0317 119.23 69.0317C122.389 69.0317 124.949 66.4713 124.949 63.3129C124.949 60.1545 122.389 57.5942 119.23 57.5942C113.592 57.5942 108.801 54.12 107.167 49.2962Z" fill="#1976D2"/>
<path fill-rule="evenodd" clip-rule="evenodd" d="M118.254 23.6014C108.259 -7.1588 64.7415 -7.1588 54.7469 23.6014C51.8084 32.6453 43.3806 38.7684 33.8713 38.7684C1.52817 38.7684 -11.9195 80.156 14.2467 99.1668C21.9399 104.756 25.159 114.664 22.2205 123.708C12.2259 154.468 47.4322 180.047 73.5984 161.036C81.2916 155.446 91.7089 155.446 99.4021 161.036C125.568 180.047 160.775 154.468 150.78 123.708C147.842 114.664 151.061 104.756 158.754 99.1668C184.92 80.156 171.472 38.7684 139.129 38.7684C129.62 38.7684 121.192 32.6453 118.254 23.6014ZM65.6247 27.1358C72.1954 6.91308 100.805 6.91308 107.376 27.1358C111.846 40.8921 124.665 50.2059 139.129 50.2059C160.393 50.2059 169.233 77.4154 152.031 89.9137C140.329 98.4156 135.433 113.486 139.902 127.242C146.473 147.465 123.327 164.281 106.125 151.783C94.423 143.281 78.5775 143.281 66.8756 151.783C49.6732 164.281 26.5274 147.465 33.0982 127.242C37.5679 113.486 32.6714 98.4156 20.9695 89.9137C3.76705 77.4154 12.6079 50.2059 33.8713 50.2059C48.3356 50.2059 61.1549 40.8921 65.6247 27.1358Z" fill="#1976D2"/>
</svg>
