<svg width="116" height="119" viewBox="0 0 116 119" fill="none" xmlns="http://www.w3.org/2000/svg">
<path fill-rule="evenodd" clip-rule="evenodd" d="M25.2954 0.3125C11.4977 0.3125 0.3125 11.4977 0.3125 25.2954C0.3125 32.2982 3.25165 38.9796 8.41384 43.7116L27.6583 61.3524C32.8542 66.1153 35.8125 72.8402 35.8125 79.8888V105.333C35.8125 116.347 48.3077 122.71 57.2151 116.232L68.7009 107.879C74.0591 103.982 77.2292 97.7565 77.2292 91.1312V80.5957C77.2292 73.1991 80.4857 66.1776 86.1322 61.3997L106.961 43.7755C112.495 39.0924 115.687 32.21 115.687 24.96C115.687 11.3475 104.652 0.3125 91.04 0.3125H25.2954ZM9.1875 25.2954C9.1875 16.3992 16.3992 9.1875 25.2954 9.1875H91.04C99.7509 9.1875 106.812 16.2491 106.812 24.96C106.812 29.5995 104.77 34.0036 101.228 37.0005L80.3995 54.6247C72.7601 61.0888 68.3542 70.5885 68.3542 80.5957V91.1312C68.3542 94.9171 66.5427 98.4744 63.4809 100.701L51.9951 109.055C48.9538 111.266 44.6875 109.094 44.6875 105.333V79.8888C44.6875 70.3525 40.6851 61.254 33.6554 54.8102L14.4109 37.1694C11.0825 34.1184 9.1875 29.8105 9.1875 25.2954Z" fill="#1976D2"/>
</svg>
