<svg width="102" height="102" viewBox="0 0 102 102" fill="none" xmlns="http://www.w3.org/2000/svg">
<path fill-rule="evenodd" clip-rule="evenodd" d="M28.8359 0.806931C27.0843 0.687427 24.9509 0.687461 22.3953 0.687501H22.1048C19.5492 0.687461 17.4157 0.687427 15.6642 0.806931C13.8408 0.931335 12.1186 1.19953 10.4488 1.89116C6.57432 3.49603 3.49603 6.57432 1.89116 10.4488C1.19953 12.1186 0.931335 13.8408 0.806931 15.6642C0.687427 17.4157 0.687461 19.5491 0.687501 22.1047V22.3952C0.687461 24.9508 0.687427 27.0843 0.806931 28.8359C0.931335 30.6592 1.19953 32.3815 1.89116 34.0512C3.49603 37.9257 6.57432 41.004 10.4488 42.6089C12.1186 43.3005 13.8408 43.5687 15.6642 43.6931C17.4157 43.8126 19.5491 43.8125 22.1048 43.8125H22.3952C24.9509 43.8125 27.0843 43.8126 28.8359 43.6931C30.6592 43.5687 32.3815 43.3005 34.0512 42.6089C37.9257 41.004 41.004 37.9257 42.6089 34.0512C43.3005 32.3815 43.5687 30.6592 43.6931 28.8359C43.8126 27.0843 43.8125 24.9509 43.8125 22.3952V22.1048C43.8125 19.5491 43.8126 17.4157 43.6931 15.6642C43.5687 13.8408 43.3005 12.1186 42.6089 10.4488C41.004 6.57432 37.9257 3.49603 34.0512 1.89116C32.3815 1.19953 30.6592 0.931335 28.8359 0.806931ZM13.7495 9.85962C14.1931 9.67586 14.8671 9.50637 16.2513 9.41193C17.6742 9.31484 19.5118 9.3125 22.25 9.3125C24.9882 9.3125 26.8258 9.31484 28.2487 9.41193C29.6329 9.50637 30.3069 9.67586 30.7505 9.85962C32.5117 10.5891 33.9109 11.9883 34.6404 13.7495C34.8241 14.1931 34.9936 14.8671 35.0881 16.2513C35.1852 17.6742 35.1875 19.5118 35.1875 22.25C35.1875 24.9882 35.1852 26.8258 35.0881 28.2487C34.9936 29.6329 34.8241 30.3069 34.6404 30.7505C33.9109 32.5117 32.5117 33.9109 30.7505 34.6404C30.3069 34.8241 29.6329 34.9936 28.2487 35.0881C26.8258 35.1852 24.9882 35.1875 22.25 35.1875C19.5118 35.1875 17.6742 35.1852 16.2513 35.0881C14.8671 34.9936 14.1931 34.8241 13.7495 34.6404C11.9883 33.9109 10.5891 32.5117 9.85962 30.7505C9.67586 30.3069 9.50637 29.6329 9.41193 28.2487C9.31484 26.8258 9.3125 24.9882 9.3125 22.25C9.3125 19.5118 9.31484 17.6742 9.41193 16.2513C9.50637 14.8671 9.67586 14.1931 9.85962 13.7495C10.5891 11.9883 11.9883 10.5891 13.7495 9.85962Z" fill="#1976D2"/>
<path d="M84.0625 5C84.0625 2.61828 82.1317 0.687501 79.75 0.687501C77.3683 0.687501 75.4375 2.61828 75.4375 5V17.9375H62.5C60.1183 17.9375 58.1875 19.8683 58.1875 22.25C58.1875 24.6317 60.1183 26.5625 62.5 26.5625H75.4375V39.5C75.4375 41.8817 77.3683 43.8125 79.75 43.8125C82.1317 43.8125 84.0625 41.8817 84.0625 39.5V26.5625H97C99.3817 26.5625 101.312 24.6317 101.312 22.25C101.312 19.8683 99.3817 17.9375 97 17.9375H84.0625V5Z" fill="#1976D2"/>
<path fill-rule="evenodd" clip-rule="evenodd" d="M28.8359 58.3069C27.0843 58.1874 24.9509 58.1875 22.3952 58.1875H22.1048C19.5491 58.1875 17.4157 58.1874 15.6642 58.3069C13.8408 58.4313 12.1186 58.6995 10.4488 59.3912C6.57431 60.996 3.49603 64.0743 1.89116 67.9488C1.19953 69.6186 0.931335 71.3408 0.806931 73.1642C0.687427 74.9157 0.687461 77.0491 0.687501 79.6047V79.8952C0.687461 82.4508 0.687427 84.5843 0.806931 86.3359C0.931335 88.1592 1.19953 89.8815 1.89116 91.5512C3.49603 95.4257 6.57431 98.504 10.4488 100.109C12.1186 100.8 13.8408 101.069 15.6642 101.193C17.4157 101.313 19.5491 101.313 22.1048 101.312H22.3952C24.9509 101.313 27.0843 101.313 28.8359 101.193C30.6592 101.069 32.3815 100.8 34.0512 100.109C37.9257 98.504 41.004 95.4257 42.6089 91.5512C43.3005 89.8814 43.5687 88.1592 43.6931 86.3359C43.8126 84.5843 43.8125 82.4509 43.8125 79.8952V79.6048C43.8125 77.0491 43.8126 74.9157 43.6931 73.1642C43.5687 71.3408 43.3005 69.6186 42.6089 67.9488C41.004 64.0743 37.9257 60.996 34.0512 59.3912C32.3815 58.6995 30.6592 58.4313 28.8359 58.3069ZM13.7495 67.3596C14.1931 67.1759 14.8671 67.0064 16.2513 66.9119C17.6742 66.8148 19.5118 66.8125 22.25 66.8125C24.9882 66.8125 26.8258 66.8148 28.2487 66.9119C29.6329 67.0064 30.3069 67.1759 30.7505 67.3596C32.5117 68.0891 33.9109 69.4883 34.6404 71.2495C34.8241 71.6931 34.9936 72.3671 35.0881 73.7513C35.1852 75.1742 35.1875 77.0118 35.1875 79.75C35.1875 82.4882 35.1852 84.3258 35.0881 85.7487C34.9936 87.1329 34.8241 87.8069 34.6404 88.2505C33.9109 90.0117 32.5117 91.4109 30.7505 92.1404C30.3069 92.3241 29.6329 92.4936 28.2487 92.5881C26.8258 92.6852 24.9882 92.6875 22.25 92.6875C19.5118 92.6875 17.6742 92.6852 16.2513 92.5881C14.8671 92.4936 14.1931 92.3241 13.7495 92.1404C11.9883 91.4109 10.5891 90.0117 9.85962 88.2505C9.67586 87.8069 9.50637 87.1329 9.41193 85.7487C9.31484 84.3258 9.3125 82.4882 9.3125 79.75C9.3125 77.0118 9.31484 75.1742 9.41193 73.7513C9.50637 72.3671 9.67586 71.6931 9.85962 71.2495C10.5891 69.4883 11.9883 68.0891 13.7495 67.3596Z" fill="#1976D2"/>
<path fill-rule="evenodd" clip-rule="evenodd" d="M86.3359 58.3069C84.5843 58.1874 82.4509 58.1875 79.8952 58.1875H79.6048C77.0491 58.1875 74.9157 58.1874 73.1642 58.3069C71.3408 58.4313 69.6186 58.6995 67.9488 59.3912C64.0743 60.996 60.996 64.0743 59.3912 67.9488C58.6995 69.6186 58.4313 71.3408 58.3069 73.1642C58.1874 74.9157 58.1875 77.0491 58.1875 79.6048V79.8952C58.1875 82.4509 58.1874 84.5843 58.3069 86.3359C58.4313 88.1592 58.6995 89.8814 59.3912 91.5512C60.996 95.4257 64.0743 98.504 67.9488 100.109C69.6186 100.8 71.3408 101.069 73.1642 101.193C74.9157 101.313 77.0491 101.313 79.6048 101.312H79.8952C82.4509 101.313 84.5843 101.313 86.3359 101.193C88.1592 101.069 89.8814 100.8 91.5512 100.109C95.4257 98.504 98.504 95.4257 100.109 91.5512C100.8 89.8814 101.069 88.1592 101.193 86.3359C101.313 84.5843 101.313 82.4509 101.312 79.8952V79.6048C101.313 77.0491 101.313 74.9157 101.193 73.1642C101.069 71.3408 100.8 69.6186 100.109 67.9488C98.504 64.0743 95.4257 60.996 91.5512 59.3912C89.8814 58.6995 88.1592 58.4313 86.3359 58.3069ZM71.2495 67.3596C71.6931 67.1759 72.3671 67.0064 73.7513 66.9119C75.1742 66.8148 77.0118 66.8125 79.75 66.8125C82.4882 66.8125 84.3258 66.8148 85.7487 66.9119C87.1329 67.0064 87.8069 67.1759 88.2505 67.3596C90.0117 68.0891 91.4109 69.4883 92.1404 71.2495C92.3241 71.6931 92.4936 72.3671 92.5881 73.7513C92.6852 75.1742 92.6875 77.0118 92.6875 79.75C92.6875 82.4882 92.6852 84.3258 92.5881 85.7487C92.4936 87.1329 92.3241 87.8069 92.1404 88.2505C91.4109 90.0117 90.0117 91.4109 88.2505 92.1404C87.8069 92.3241 87.1329 92.4936 85.7487 92.5881C84.3258 92.6852 82.4882 92.6875 79.75 92.6875C77.0118 92.6875 75.1742 92.6852 73.7513 92.5881C72.3671 92.4936 71.6931 92.3241 71.2495 92.1404C69.4883 91.4109 68.0891 90.0117 67.3596 88.2505C67.1759 87.8069 67.0064 87.1329 66.9119 85.7487C66.8148 84.3258 66.8125 82.4882 66.8125 79.75C66.8125 77.0118 66.8148 75.1742 66.9119 73.7513C67.0064 72.3671 67.1759 71.6931 67.3596 71.2495C68.0891 69.4883 69.4883 68.0891 71.2495 67.3596Z" fill="#1976D2"/>
</svg>
