<svg width="239" height="239" viewBox="0 0 239 239" fill="none" xmlns="http://www.w3.org/2000/svg">
<path fill-rule="evenodd" clip-rule="evenodd" d="M116.659 10.2638C118.551 10.1699 120.446 10.1699 122.338 10.2638C129.641 10.6264 136.365 12.7484 143.86 16.2266C151.157 19.6127 159.635 24.508 170.362 30.7012L170.969 31.0518C181.696 37.2449 190.175 42.1403 196.756 46.7664C203.516 51.5183 208.716 56.2801 212.681 62.4234C213.708 64.0147 214.656 65.6561 215.521 67.3414C218.858 73.8473 220.382 80.7311 221.117 88.9612C221.833 96.9733 221.833 106.764 221.833 119.15V119.852C221.833 132.238 221.833 142.029 221.117 150.041C220.382 158.271 218.858 165.155 215.521 171.661C214.656 173.346 213.708 174.987 212.681 176.579C207.849 184.065 201.163 189.52 192.069 195.381C186.3 199.099 179.268 203.159 170.815 208.039L170.362 208.301C159.636 214.494 151.157 219.389 143.86 222.775C136.365 226.254 129.641 228.376 122.338 228.738C120.446 228.832 118.551 228.832 116.659 228.738C109.356 228.376 102.633 226.254 95.1375 222.775C87.8407 219.389 79.3619 214.494 68.635 208.301L68.1888 208.043C59.8148 203.208 52.8359 199.179 47.0995 195.491C37.9177 189.588 31.1785 184.111 26.3162 176.579C25.289 174.987 24.3414 173.346 23.4768 171.661C20.1393 165.155 18.6153 158.271 17.8799 150.041C17.164 142.029 17.164 132.238 17.1641 119.852V119.15C17.164 106.764 17.164 96.9734 17.8799 88.9612C18.6153 80.7311 20.1393 73.8473 23.4768 67.3414C24.3414 65.6561 25.289 64.0148 26.3162 62.4234C30.2817 56.2801 35.4812 51.5183 42.241 46.7664C48.8219 42.1403 57.3007 37.2451 68.0276 31.052L68.6352 30.7012C79.362 24.508 87.8408 19.6127 95.1375 16.2266C102.633 12.7484 109.356 10.6264 116.659 10.2638ZM185.308 181.958C178.887 168.575 165.209 159.334 149.374 159.334H89.6237C73.7881 159.334 60.1108 168.575 53.6897 181.958C54.1719 182.276 54.6676 182.599 55.1772 182.926C60.58 186.4 67.2549 190.256 75.8001 195.189C86.8976 201.596 94.8038 206.153 101.425 209.226C107.917 212.238 112.691 213.585 117.4 213.819C118.798 213.888 120.199 213.888 121.597 213.819C126.306 213.585 131.08 212.238 137.572 209.226C144.194 206.153 152.1 201.596 163.197 195.189C171.827 190.207 178.549 186.324 183.977 182.825C184.432 182.532 184.875 182.243 185.308 181.958ZM119.498 42.3239C93.3741 42.3239 72.1963 63.5018 72.1963 89.626C72.1963 115.75 93.3741 136.928 119.498 136.928C145.623 136.928 166.8 115.75 166.8 89.626C166.8 63.5018 145.623 42.3239 119.498 42.3239Z" fill="#898989"/>
</svg>
