<svg width="90" height="119" viewBox="0 0 90 119" fill="none" xmlns="http://www.w3.org/2000/svg">
<path fill-rule="evenodd" clip-rule="evenodd" d="M45 0.1875C29.9157 0.1875 17.6875 12.4157 17.6875 27.5C17.6875 42.5843 29.9157 54.8125 45 54.8125C60.0843 54.8125 72.3125 42.5843 72.3125 27.5C72.3125 12.4157 60.0843 0.1875 45 0.1875ZM26.3125 27.5C26.3125 17.1792 34.6792 8.8125 45 8.8125C55.3208 8.8125 63.6875 17.1792 63.6875 27.5C63.6875 37.8208 55.3208 46.1875 45 46.1875C34.6792 46.1875 26.3125 37.8208 26.3125 27.5Z" fill="#1976D2"/>
<path fill-rule="evenodd" clip-rule="evenodd" d="M27.75 63.4375C12.6657 63.4375 0.4375 75.6657 0.4375 90.75C0.4375 105.834 12.6657 118.062 27.75 118.062H62.25C77.3343 118.062 89.5625 105.834 89.5625 90.75C89.5625 75.6657 77.3343 63.4375 62.25 63.4375H27.75ZM9.0625 90.75C9.0625 80.4292 17.4292 72.0625 27.75 72.0625H62.25C72.5708 72.0625 80.9375 80.4292 80.9375 90.75C80.9375 101.071 72.5708 109.438 62.25 109.438H27.75C17.4292 109.438 9.0625 101.071 9.0625 90.75Z" fill="#1976D2"/>
</svg>
