<svg width="107" height="105" viewBox="0 0 107 105" fill="none" xmlns="http://www.w3.org/2000/svg">
<path fill-rule="evenodd" clip-rule="evenodd" d="M16 41.5712V74.1426C16 86.1351 25.7218 95.8569 37.7143 95.8569H70.2857C82.2782 95.8569 92 86.1351 92 74.1426V41.5712C92 29.5787 82.2782 19.8569 70.2857 19.8569H37.7143C25.7218 19.8569 16 29.5787 16 41.5712Z" stroke="#1976D2" stroke-width="6" stroke-linecap="round" stroke-linejoin="round"/>
<path fill-rule="evenodd" clip-rule="evenodd" d="M39.2451 50.4801C37.753 48.9881 37.3066 46.7442 38.114 44.7948C38.9215 42.8453 40.8237 41.5742 42.9338 41.5742C45.0439 41.5742 46.9462 42.8453 47.7536 44.7948C48.561 46.7442 48.1146 48.9881 46.6225 50.4801C44.5852 52.5172 41.2824 52.5172 39.2451 50.4801V50.4801Z" stroke="#1976D2" stroke-width="6" stroke-linecap="round"/>
<path fill-rule="evenodd" clip-rule="evenodd" d="M61.376 72.6115C59.8838 71.1195 59.4374 68.8756 60.2449 66.9261C61.0523 64.9767 62.9546 63.7056 65.0647 63.7056C67.1747 63.7056 69.077 64.9767 69.8845 66.9261C70.6919 68.8756 70.2455 71.1195 68.7534 72.6115C66.7161 74.6486 63.4132 74.6486 61.376 72.6115V72.6115Z" stroke="#1976D2" stroke-width="6" stroke-linecap="round"/>
<path d="M67.2843 25.2857C67.2843 26.9426 68.6275 28.2857 70.2843 28.2857C71.9412 28.2857 73.2843 26.9426 73.2843 25.2857H67.2843ZM73.2843 9C73.2843 7.34315 71.9412 6 70.2843 6C68.6275 6 67.2843 7.34315 67.2843 9H73.2843ZM34.7129 25.2857C34.7129 26.9426 36.056 28.2857 37.7129 28.2857C39.3697 28.2857 40.7129 26.9426 40.7129 25.2857H34.7129ZM40.7129 9C40.7129 7.34315 39.3697 6 37.7129 6C36.056 6 34.7129 7.34315 34.7129 9H40.7129ZM70.8742 45.2177C72.0457 44.0461 72.0455 42.1466 70.8738 40.9751C69.7021 39.8036 67.8026 39.8038 66.6312 40.9755L70.8742 45.2177ZM37.116 70.4961C35.9446 71.6678 35.9448 73.5672 37.1164 74.7387C38.2881 75.9102 40.1876 75.91 41.3591 74.7383L37.116 70.4961ZM73.2843 25.2857V9H67.2843V25.2857H73.2843ZM40.7129 25.2857V9H34.7129V25.2857H40.7129ZM66.6312 40.9755L37.116 70.4961L41.3591 74.7383L70.8742 45.2177L66.6312 40.9755Z" fill="#1976D2"/>
</svg>
