<svg width="151" height="151" viewBox="0 0 151 151" fill="none" xmlns="http://www.w3.org/2000/svg">
<path d="M44.6667 52.375C44.6667 56.6322 48.1178 60.0833 52.375 60.0833C56.6322 60.0833 60.0833 56.6322 60.0833 52.375C60.0833 48.1178 56.6322 44.6667 52.375 44.6667C48.1178 44.6667 44.6667 48.1178 44.6667 52.375Z" fill="#1976D2"/>
<path d="M90.9167 98.625C90.9167 102.882 94.3678 106.333 98.625 106.333C102.882 106.333 106.333 102.882 106.333 98.625C106.333 94.3678 102.882 90.9167 98.625 90.9167C94.3678 90.9167 90.9167 94.3678 90.9167 98.625Z" fill="#1976D2"/>
<path d="M100.068 59.108C102.326 56.8503 102.326 53.1898 100.068 50.9321C97.8102 48.6744 94.1497 48.6744 91.892 50.9321L48.287 94.537C46.0293 96.7948 46.0293 100.455 48.287 102.713C50.5448 104.971 54.2052 104.971 56.463 102.713L100.068 59.108Z" fill="#1976D2"/>
<path fill-rule="evenodd" clip-rule="evenodd" d="M109.906 1.29749C101.102 0.343638 90.0054 0.343688 75.8488 0.343751H75.1512C60.9946 0.343688 49.8976 0.343638 41.0937 1.29749C32.1093 2.27088 24.8297 4.29292 18.6143 8.80868C14.8515 11.5425 11.5425 14.8515 8.80868 18.6143C4.29292 24.8297 2.27088 32.1093 1.29749 41.0937C0.343638 49.8976 0.343688 60.9946 0.343751 75.1512V75.8488C0.343688 90.0054 0.343638 101.102 1.29749 109.906C2.27088 118.891 4.29292 126.17 8.80868 132.386C11.5425 136.148 14.8515 139.458 18.6143 142.191C24.8297 146.707 32.1093 148.729 41.0937 149.703C49.8975 150.656 60.9942 150.656 75.1505 150.656H75.849C90.0052 150.656 101.103 150.656 109.906 149.703C118.891 148.729 126.17 146.707 132.386 142.191C136.148 139.458 139.458 136.148 142.191 132.386C146.707 126.17 148.729 118.891 149.703 109.906C150.656 101.103 150.656 90.0058 150.656 75.8496V75.151C150.656 60.9948 150.656 49.8975 149.703 41.0937C148.729 32.1093 146.707 24.8297 142.191 18.6143C139.458 14.8515 136.148 11.5425 132.386 8.80868C126.17 4.29292 118.891 2.27088 109.906 1.29749ZM25.4106 18.1629C29.3264 15.3179 34.3385 13.6595 42.3391 12.7927C50.4479 11.9142 60.9191 11.9063 75.5 11.9063C90.0809 11.9063 100.552 11.9142 108.661 12.7927C116.661 13.6595 121.674 15.3179 125.589 18.1629C128.371 20.1836 130.816 22.6294 132.837 25.4106C135.682 29.3264 137.34 34.3385 138.207 42.3391C139.086 50.4479 139.094 60.9191 139.094 75.5C139.094 90.0809 139.086 100.552 138.207 108.661C137.34 116.661 135.682 121.674 132.837 125.589C130.816 128.371 128.371 130.816 125.589 132.837C121.674 135.682 116.661 137.34 108.661 138.207C100.552 139.086 90.0809 139.094 75.5 139.094C60.9191 139.094 50.4479 139.086 42.3391 138.207C34.3385 137.34 29.3264 135.682 25.4106 132.837C22.6294 130.816 20.1836 128.371 18.1629 125.589C15.3179 121.674 13.6595 116.661 12.7927 108.661C11.9142 100.552 11.9063 90.0809 11.9063 75.5C11.9063 60.9191 11.9142 50.4479 12.7927 42.3391C13.6595 34.3385 15.3179 29.3264 18.1629 25.4106C20.1836 22.6294 22.6294 20.1836 25.4106 18.1629Z" fill="#1976D2"/>
</svg>
