<svg width="110" height="90" viewBox="0 0 110 90" fill="none" xmlns="http://www.w3.org/2000/svg">
<path fill-rule="evenodd" clip-rule="evenodd" d="M26.7586 0.520996C12.1755 0.520996 0.353516 12.343 0.353516 26.9261C0.353516 31.1541 2.77817 35.0074 6.58978 36.837L9.06723 38.0261C14.9183 40.8346 14.9183 49.1657 9.06723 51.9742L6.58978 53.1634C2.77817 54.9929 0.353516 58.8463 0.353516 63.0742C0.353516 77.6574 12.1755 89.4793 26.7586 89.4793H83.2401C97.8232 89.4793 109.645 77.6574 109.645 63.0742C109.645 58.8463 107.221 54.9929 103.409 53.1634L100.931 51.9742C95.0804 49.1657 95.0804 40.8346 100.931 38.0261L103.409 36.837C107.221 35.0074 109.645 31.1541 109.645 26.9261C109.645 12.343 97.8232 0.520996 83.2401 0.520996H26.7586ZM7.97852 26.9261C7.97852 16.5541 16.3866 8.146 26.7586 8.146H83.2401C93.612 8.146 102.02 16.5541 102.02 26.9261C102.02 28.2216 101.277 29.4023 100.109 29.9629L97.6319 31.152C86.0136 36.7288 86.0136 53.2715 97.6319 58.8483L100.109 60.0375C101.277 60.5981 102.02 61.7787 102.02 63.0742C102.02 73.4462 93.612 81.8543 83.2401 81.8543H26.7586C16.3866 81.8543 7.97852 73.4462 7.97852 63.0742C7.97852 61.7788 8.72144 60.5981 9.88935 60.0375L12.3668 58.8483C23.9851 53.2715 23.9851 36.7288 12.3668 31.152L9.88935 29.9629C8.72144 29.4023 7.97852 28.2216 7.97852 26.9261Z" fill="#1976D2"/>
<path d="M68.9785 8.146C68.9785 8.146 67.3709 8.146 65.2653 8.146C63.1597 8.146 61.3535 8.146 61.3535 8.146V9.75572C61.3535 11.8613 63.0604 13.5682 65.166 13.5682C67.2716 13.5682 68.9785 11.8613 68.9785 9.75572V8.146Z" fill="#1976D2"/>
<path d="M68.9785 26.0224C68.9785 23.9168 67.2716 22.2099 65.166 22.2099C63.0604 22.2099 61.3535 23.9168 61.3535 26.0224V36.8668C61.3535 38.9724 63.0604 40.6793 65.166 40.6793C67.2716 40.6793 68.9785 38.9724 68.9785 36.8668V26.0224Z" fill="#1976D2"/>
<path d="M68.9785 53.1335C68.9785 51.0279 67.2716 49.321 65.166 49.321C63.0604 49.321 61.3535 51.0279 61.3535 53.1335V63.9779C61.3535 66.0835 63.0604 67.7904 65.166 67.7904C67.2716 67.7904 68.9785 66.0835 68.9785 63.9779V53.1335Z" fill="#1976D2"/>
<path d="M68.9785 80.2446C68.9785 78.139 67.2716 76.4321 65.166 76.4321C63.0604 76.4321 61.3535 78.139 61.3535 80.2446V81.8543H65.166H68.9785V80.2446Z" fill="#1976D2"/>
</svg>
