<svg width="137" height="137" viewBox="0 0 137 137" fill="none" xmlns="http://www.w3.org/2000/svg">
<path fill-rule="evenodd" clip-rule="evenodd" d="M68.5006 22.8335C56.6783 22.8335 47.0944 32.4174 47.0944 44.2397C47.0944 56.0621 56.6783 65.646 68.5006 65.646C80.323 65.646 89.9069 56.0621 89.9069 44.2397C89.9069 32.4174 80.323 22.8335 68.5006 22.8335ZM55.6569 44.2397C55.6569 37.1463 61.4072 31.396 68.5006 31.396C75.5941 31.396 81.3444 37.1463 81.3444 44.2397C81.3444 51.3332 75.5941 57.0835 68.5006 57.0835C61.4072 57.0835 55.6569 51.3332 55.6569 44.2397Z" fill="#1976D2"/>
<path fill-rule="evenodd" clip-rule="evenodd" d="M51.3756 74.2085C39.5533 74.2085 29.9694 83.7924 29.9694 95.6147C29.9694 107.437 39.5533 117.021 51.3756 117.021H85.6256C97.448 117.021 107.032 107.437 107.032 95.6147C107.032 83.7924 97.448 74.2085 85.6256 74.2085H51.3756ZM38.5319 95.6147C38.5319 88.5213 44.2822 82.771 51.3756 82.771H85.6256C92.7191 82.771 98.4694 88.5213 98.4694 95.6147C98.4694 102.708 92.7191 108.458 85.6256 108.458H51.3756C44.2822 108.458 38.5319 102.708 38.5319 95.6147Z" fill="#1976D2"/>
<path d="M44.2525 59.3021C43.3521 57.8557 41.6627 57.0835 39.959 57.0835C32.8656 57.0835 27.1152 51.3332 27.1152 44.2397C27.1152 37.1463 32.8656 31.396 39.959 31.396C41.6627 31.396 43.3521 30.6238 44.2525 29.1774C44.2923 29.1135 44.3323 29.0497 44.3726 28.986C45.8717 26.6199 45.1122 23.2696 42.3279 22.9631C41.5501 22.8775 40.7597 22.8335 39.959 22.8335C28.1366 22.8335 18.5527 32.4174 18.5527 44.2397C18.5527 56.0621 28.1366 65.646 39.959 65.646C40.7597 65.646 41.5501 65.602 42.328 65.5164C45.1122 65.2099 45.8717 61.8596 44.3727 59.4935C44.3323 59.4298 44.2923 59.366 44.2525 59.3021Z" fill="#1976D2"/>
<path d="M26.8771 104.559C26.2291 103.478 25.0853 102.75 23.8249 102.75H22.834C15.7406 102.75 9.99023 96.9998 9.99023 89.9064C9.99023 82.813 15.7406 77.0627 22.834 77.0627H23.8249C25.0853 77.0627 26.2291 76.335 26.8771 75.2539C28.4589 72.6149 26.7424 68.5002 23.6656 68.5002H22.834C11.0116 68.5002 1.42773 78.0841 1.42773 89.9064C1.42773 101.729 11.0116 111.313 22.834 111.313H23.6656C26.7424 111.313 28.4589 107.198 26.8771 104.559Z" fill="#1976D2"/>
<path d="M92.6286 59.4935C91.1296 61.8596 91.8891 65.2099 94.6733 65.5164C95.4512 65.602 96.2416 65.646 97.0423 65.646C108.865 65.646 118.449 56.0621 118.449 44.2397C118.449 32.4174 108.865 22.8335 97.0423 22.8335C96.2416 22.8335 95.4512 22.8775 94.6733 22.9631C91.8891 23.2696 91.1296 26.6199 92.6286 28.986C92.6689 29.0497 92.709 29.1134 92.7488 29.1774C93.6492 30.6238 95.3386 31.396 97.0423 31.396C104.136 31.396 109.886 37.1463 109.886 44.2397C109.886 51.3332 104.136 57.0835 97.0423 57.0835C95.3386 57.0835 93.6492 57.8557 92.7488 59.3021C92.709 59.366 92.669 59.4298 92.6286 59.4935Z" fill="#1976D2"/>
<path d="M110.124 104.559C108.542 107.198 110.259 111.313 113.336 111.313H114.167C125.99 111.313 135.574 101.729 135.574 89.9064C135.574 78.0841 125.99 68.5002 114.167 68.5002H113.336C110.259 68.5002 108.542 72.6149 110.124 75.2539C110.772 76.335 111.916 77.0627 113.176 77.0627H114.167C121.261 77.0627 127.011 82.813 127.011 89.9064C127.011 96.9998 121.261 102.75 114.167 102.75H113.176C111.916 102.75 110.772 103.478 110.124 104.559Z" fill="#1976D2"/>
</svg>
