<svg width="90" height="90" viewBox="0 0 90 90" fill="none" xmlns="http://www.w3.org/2000/svg">
<path d="M58.6365 45.4262C57.0832 45.4262 55.824 46.6854 55.824 48.2387C55.824 49.792 57.0832 51.0512 58.6365 51.0512H68.8637C70.417 51.0512 71.6762 49.792 71.6762 48.2387C71.6762 46.6854 70.417 45.4262 68.8637 45.4262H58.6365Z" fill="#1976D2"/>
<path fill-rule="evenodd" clip-rule="evenodd" d="M73.6782 12.6655C73.9684 14.3304 74.0387 16.3088 74.0582 18.5724C74.3836 18.7421 74.7028 18.9227 75.0165 19.115C77.9178 20.8929 80.3572 23.3323 82.1352 26.2336C84.0927 29.4281 84.8046 33.1304 85.0987 37.836C85.3126 41.2593 85.3126 45.4231 85.3126 50.537V50.6429C85.3126 53.5754 85.3126 56.1877 85.274 58.5127C85.154 65.7422 84.6858 70.8541 82.1352 75.0164C80.3572 77.9177 77.9178 80.3571 75.0165 82.1351C72.2459 83.8329 69.103 84.5896 65.2647 84.9545C61.4991 85.3126 56.7856 85.3125 50.773 85.3125H39.2275C33.2149 85.3125 28.5012 85.3126 24.7355 84.9545C20.8972 84.5896 17.7543 83.8329 14.9837 82.1351C12.0824 80.3571 9.64301 77.9177 7.86506 75.0164C6.16725 72.2458 5.41056 69.1029 5.04562 65.2646C4.68757 61.4989 4.68759 56.7853 4.68761 50.7726L4.68791 48.8011C4.6385 46.948 4.65367 44.8763 4.67004 42.6426C4.67866 41.4652 4.68761 40.2428 4.68761 38.9836L4.68761 38.821C4.68758 32.4001 4.68756 27.3608 5.1032 23.3613C5.52713 19.2821 6.40867 15.9548 8.39683 13.102C9.59803 11.3783 11.0553 9.85773 12.7178 8.59852C15.4864 6.50139 18.7264 5.56913 22.6774 5.12285C26.5321 4.68745 31.3815 4.68748 37.5244 4.68752L58.0296 4.68751C61.0242 4.68738 63.5624 4.68727 65.5859 4.97089C67.7472 5.27383 69.7307 5.94775 71.3177 7.6023C72.6953 9.03847 73.3479 10.7711 73.6782 12.6655ZM57.8318 10.3125C61.0782 10.3125 63.2181 10.319 64.8051 10.5414C66.2987 10.7508 66.8798 11.1015 67.2583 11.4961C67.6084 11.8611 67.9242 12.4121 68.1367 13.6315C68.2789 14.4468 68.3564 15.4434 68.3975 16.7182C66.8497 16.4349 65.1792 16.2604 63.3597 16.1481C59.9471 15.9375 55.8 15.9375 50.712 15.9375H39.2275C33.2148 15.9375 28.5012 15.9375 24.7355 16.2955C20.8972 16.6605 17.7543 17.4172 14.9837 19.115C13.4902 20.0302 12.119 21.1207 10.8975 22.3593C11.3091 19.6319 11.9832 17.7939 13.0117 16.3181C13.8802 15.0719 14.9279 13.9809 16.1141 13.0824C17.7556 11.8391 19.8663 11.1011 23.3088 10.7123C26.8111 10.3167 31.3429 10.3125 37.6991 10.3125H57.8318ZM17.9228 23.9111C19.661 22.8459 21.8414 22.2211 25.2679 21.8953C28.7364 21.5655 33.183 21.5625 39.3751 21.5625H50.6251C55.8174 21.5625 59.7935 21.5637 63.0133 21.7624C66.2299 21.9609 68.4788 22.3478 70.2516 23.0211C70.9155 23.2732 71.5164 23.5673 72.0774 23.9111C74.2219 25.2252 76.0249 27.0282 77.3391 29.1727C78.2639 30.6819 78.8531 32.5163 79.2063 35.1989H58.6365C51.4348 35.1989 45.5967 41.037 45.5967 48.2387C45.5967 55.4404 51.4348 61.2785 58.6365 61.2785H79.5727C79.356 66.7547 78.7584 69.7613 77.3391 72.0773C76.0249 74.2218 74.2219 76.0248 72.0774 77.339C70.3392 78.4042 68.1589 79.029 64.7323 79.3548C61.2639 79.6846 56.8173 79.6875 50.6251 79.6875H39.3751C33.183 79.6875 28.7364 79.6846 25.2679 79.3548C21.8414 79.029 19.661 78.4042 17.9228 77.339C15.7783 76.0248 13.9753 74.2218 12.6612 72.0773C11.596 70.3391 10.9712 68.1588 10.6454 64.7322C10.3156 61.2638 10.3126 56.8172 10.3126 50.625C10.3126 44.4329 10.3156 39.9863 10.6454 36.5178C10.9712 33.0913 11.596 30.9109 12.6612 29.1727C13.9753 27.0282 15.7783 25.2252 17.9228 23.9111ZM51.2217 48.2387C51.2217 44.1436 54.5414 40.8239 58.6365 40.8239H79.6035C79.6869 43.5387 79.6876 46.7416 79.6876 50.625C79.6876 52.4397 79.6876 54.1088 79.6788 55.6535H58.6365C54.5414 55.6535 51.2217 52.3338 51.2217 48.2387Z" fill="#1976D2"/>
</svg>
